<mxfile host="app.diagrams.net" modified="2023-05-08T13:28:47.543Z" agent="Mozilla/5.0 (Windows NT 10.0; Win64; x64) AppleWebKit/537.36 (KHTML, like Gecko) Chrome/113.0.0.0 Safari/537.36 Edg/113.0.1774.35" etag="v-loOF9yN3XQGGzVlQLr" version="21.2.9" type="github">
  <diagram name="Page-1" id="4VXQT9xs7OvDDJhdbD5c">
    <mxGraphModel dx="1020" dy="1108" grid="1" gridSize="10" guides="1" tooltips="1" connect="1" arrows="1" fold="1" page="1" pageScale="1" pageWidth="827" pageHeight="1169" math="0" shadow="0">
      <root>
        <mxCell id="0" />
        <mxCell id="1" parent="0" />
        <mxCell id="y34ZD8YPaEnMjfiaR_Mh-10" style="edgeStyle=orthogonalEdgeStyle;rounded=0;orthogonalLoop=1;jettySize=auto;html=1;exitX=1;exitY=0.5;exitDx=0;exitDy=0;entryX=1;entryY=0.5;entryDx=0;entryDy=0;" edge="1" parent="1" source="y34ZD8YPaEnMjfiaR_Mh-1" target="y34ZD8YPaEnMjfiaR_Mh-9">
          <mxGeometry relative="1" as="geometry">
            <Array as="points">
              <mxPoint x="500" y="570" />
              <mxPoint x="500" y="660" />
            </Array>
          </mxGeometry>
        </mxCell>
        <mxCell id="y34ZD8YPaEnMjfiaR_Mh-1" value="Combinational circuit" style="rounded=1;whiteSpace=wrap;html=1;" vertex="1" parent="1">
          <mxGeometry x="350" y="540" width="120" height="60" as="geometry" />
        </mxCell>
        <mxCell id="y34ZD8YPaEnMjfiaR_Mh-2" value="" style="endArrow=classic;html=1;rounded=0;entryX=0;entryY=0.5;entryDx=0;entryDy=0;" edge="1" parent="1" target="y34ZD8YPaEnMjfiaR_Mh-1">
          <mxGeometry width="50" height="50" relative="1" as="geometry">
            <mxPoint x="200" y="570" as="sourcePoint" />
            <mxPoint x="440" y="540" as="targetPoint" />
          </mxGeometry>
        </mxCell>
        <mxCell id="y34ZD8YPaEnMjfiaR_Mh-3" value="Input" style="edgeLabel;html=1;align=center;verticalAlign=middle;resizable=0;points=[];" vertex="1" connectable="0" parent="y34ZD8YPaEnMjfiaR_Mh-2">
          <mxGeometry x="-0.2533" relative="1" as="geometry">
            <mxPoint as="offset" />
          </mxGeometry>
        </mxCell>
        <mxCell id="y34ZD8YPaEnMjfiaR_Mh-4" value="" style="endArrow=classic;html=1;rounded=0;entryX=0;entryY=0.5;entryDx=0;entryDy=0;" edge="1" parent="1">
          <mxGeometry width="50" height="50" relative="1" as="geometry">
            <mxPoint x="470" y="569.5" as="sourcePoint" />
            <mxPoint x="620" y="569.5" as="targetPoint" />
            <Array as="points">
              <mxPoint x="540" y="570" />
            </Array>
          </mxGeometry>
        </mxCell>
        <mxCell id="y34ZD8YPaEnMjfiaR_Mh-5" value="output" style="edgeLabel;html=1;align=center;verticalAlign=middle;resizable=0;points=[];" vertex="1" connectable="0" parent="y34ZD8YPaEnMjfiaR_Mh-4">
          <mxGeometry x="-0.2533" relative="1" as="geometry">
            <mxPoint as="offset" />
          </mxGeometry>
        </mxCell>
        <mxCell id="y34ZD8YPaEnMjfiaR_Mh-11" style="edgeStyle=orthogonalEdgeStyle;rounded=0;orthogonalLoop=1;jettySize=auto;html=1;exitX=0;exitY=0.5;exitDx=0;exitDy=0;" edge="1" parent="1" source="y34ZD8YPaEnMjfiaR_Mh-9">
          <mxGeometry relative="1" as="geometry">
            <mxPoint x="320" y="570" as="targetPoint" />
            <Array as="points">
              <mxPoint x="321" y="660" />
            </Array>
          </mxGeometry>
        </mxCell>
        <mxCell id="y34ZD8YPaEnMjfiaR_Mh-9" value="Memory" style="rounded=1;whiteSpace=wrap;html=1;" vertex="1" parent="1">
          <mxGeometry x="350" y="630" width="120" height="60" as="geometry" />
        </mxCell>
      </root>
    </mxGraphModel>
  </diagram>
</mxfile>
